<mxfile host="app.diagrams.net" agent="Mozilla/5.0 (Windows NT 10.0; Win64; x64) AppleWebKit/537.36 (KHTML, like Gecko) Chrome/131.0.0.0 Safari/537.36 Edg/131.0.0.0" version="25.0.3">
  <diagram name="第 1 页" id="AxOUmrifM-IOtfebfmQq">
    <mxGraphModel dx="2078" dy="1378" grid="1" gridSize="10" guides="1" tooltips="1" connect="1" arrows="1" fold="1" page="0" pageScale="1" pageWidth="5000" pageHeight="5000" math="0" shadow="0">
      <root>
        <mxCell id="0" />
        <mxCell id="1" parent="0" />
        <mxCell id="5O7YW4QzNlTuXjikIeBW-30" style="edgeStyle=orthogonalEdgeStyle;rounded=0;orthogonalLoop=1;jettySize=auto;html=1;entryX=1;entryY=0.5;entryDx=0;entryDy=0;fontSize=16;startSize=8;endSize=8;curved=1;" edge="1" parent="1" source="5O7YW4QzNlTuXjikIeBW-1" target="5O7YW4QzNlTuXjikIeBW-2">
          <mxGeometry relative="1" as="geometry" />
        </mxCell>
        <mxCell id="5O7YW4QzNlTuXjikIeBW-31" style="edgeStyle=orthogonalEdgeStyle;curved=1;rounded=0;orthogonalLoop=1;jettySize=auto;html=1;entryX=1;entryY=0.5;entryDx=0;entryDy=0;fontSize=16;startSize=8;endSize=8;" edge="1" parent="1" source="5O7YW4QzNlTuXjikIeBW-1" target="5O7YW4QzNlTuXjikIeBW-11">
          <mxGeometry relative="1" as="geometry" />
        </mxCell>
        <mxCell id="5O7YW4QzNlTuXjikIeBW-32" style="edgeStyle=orthogonalEdgeStyle;curved=1;rounded=0;orthogonalLoop=1;jettySize=auto;html=1;entryX=0;entryY=0.5;entryDx=0;entryDy=0;fontSize=16;startSize=8;endSize=8;" edge="1" parent="1" source="5O7YW4QzNlTuXjikIeBW-1" target="5O7YW4QzNlTuXjikIeBW-20">
          <mxGeometry relative="1" as="geometry" />
        </mxCell>
        <mxCell id="5O7YW4QzNlTuXjikIeBW-33" style="edgeStyle=orthogonalEdgeStyle;curved=1;rounded=0;orthogonalLoop=1;jettySize=auto;html=1;entryX=0;entryY=0.5;entryDx=0;entryDy=0;fontSize=16;startSize=8;endSize=8;" edge="1" parent="1" source="5O7YW4QzNlTuXjikIeBW-1" target="5O7YW4QzNlTuXjikIeBW-17">
          <mxGeometry relative="1" as="geometry" />
        </mxCell>
        <mxCell id="5O7YW4QzNlTuXjikIeBW-1" value="SpringBoot框架" style="rounded=0;whiteSpace=wrap;html=1;fontSize=16;" vertex="1" parent="1">
          <mxGeometry x="160" y="160" width="120" height="60" as="geometry" />
        </mxCell>
        <mxCell id="5O7YW4QzNlTuXjikIeBW-34" style="edgeStyle=orthogonalEdgeStyle;rounded=0;orthogonalLoop=1;jettySize=auto;html=1;entryX=1;entryY=0.5;entryDx=0;entryDy=0;fontSize=16;startSize=8;endSize=8;" edge="1" parent="1" source="5O7YW4QzNlTuXjikIeBW-2" target="5O7YW4QzNlTuXjikIeBW-3">
          <mxGeometry relative="1" as="geometry" />
        </mxCell>
        <mxCell id="5O7YW4QzNlTuXjikIeBW-35" style="edgeStyle=orthogonalEdgeStyle;rounded=0;orthogonalLoop=1;jettySize=auto;html=1;entryX=1;entryY=0.5;entryDx=0;entryDy=0;fontSize=16;startSize=8;endSize=8;" edge="1" parent="1" source="5O7YW4QzNlTuXjikIeBW-2" target="5O7YW4QzNlTuXjikIeBW-4">
          <mxGeometry relative="1" as="geometry" />
        </mxCell>
        <mxCell id="5O7YW4QzNlTuXjikIeBW-36" style="edgeStyle=orthogonalEdgeStyle;rounded=0;orthogonalLoop=1;jettySize=auto;html=1;entryX=1;entryY=0.5;entryDx=0;entryDy=0;fontSize=16;startSize=8;endSize=8;" edge="1" parent="1" source="5O7YW4QzNlTuXjikIeBW-2" target="5O7YW4QzNlTuXjikIeBW-5">
          <mxGeometry relative="1" as="geometry" />
        </mxCell>
        <mxCell id="5O7YW4QzNlTuXjikIeBW-37" style="edgeStyle=orthogonalEdgeStyle;rounded=0;orthogonalLoop=1;jettySize=auto;html=1;entryX=1;entryY=0.5;entryDx=0;entryDy=0;fontSize=16;startSize=8;endSize=8;" edge="1" parent="1" source="5O7YW4QzNlTuXjikIeBW-2" target="5O7YW4QzNlTuXjikIeBW-6">
          <mxGeometry relative="1" as="geometry" />
        </mxCell>
        <mxCell id="5O7YW4QzNlTuXjikIeBW-39" style="edgeStyle=orthogonalEdgeStyle;rounded=0;orthogonalLoop=1;jettySize=auto;html=1;entryX=1;entryY=0.5;entryDx=0;entryDy=0;fontSize=16;startSize=8;endSize=8;" edge="1" parent="1" source="5O7YW4QzNlTuXjikIeBW-2" target="5O7YW4QzNlTuXjikIeBW-7">
          <mxGeometry relative="1" as="geometry" />
        </mxCell>
        <mxCell id="5O7YW4QzNlTuXjikIeBW-40" style="edgeStyle=orthogonalEdgeStyle;rounded=0;orthogonalLoop=1;jettySize=auto;html=1;entryX=1;entryY=0.5;entryDx=0;entryDy=0;fontSize=16;startSize=8;endSize=8;" edge="1" parent="1" source="5O7YW4QzNlTuXjikIeBW-2" target="5O7YW4QzNlTuXjikIeBW-8">
          <mxGeometry relative="1" as="geometry" />
        </mxCell>
        <mxCell id="5O7YW4QzNlTuXjikIeBW-41" style="edgeStyle=orthogonalEdgeStyle;rounded=0;orthogonalLoop=1;jettySize=auto;html=1;entryX=1;entryY=0.5;entryDx=0;entryDy=0;fontSize=16;startSize=8;endSize=8;" edge="1" parent="1" source="5O7YW4QzNlTuXjikIeBW-2" target="5O7YW4QzNlTuXjikIeBW-10">
          <mxGeometry relative="1" as="geometry" />
        </mxCell>
        <mxCell id="5O7YW4QzNlTuXjikIeBW-2" value="核心模块" style="rounded=0;whiteSpace=wrap;html=1;fontSize=16;" vertex="1" parent="1">
          <mxGeometry x="-40" y="-15" width="120" height="60" as="geometry" />
        </mxCell>
        <mxCell id="5O7YW4QzNlTuXjikIeBW-3" value="autoconfigure" style="rounded=0;whiteSpace=wrap;html=1;fontSize=16;" vertex="1" parent="1">
          <mxGeometry x="-230" y="-90" width="120" height="30" as="geometry" />
        </mxCell>
        <mxCell id="5O7YW4QzNlTuXjikIeBW-4" value="starters" style="rounded=0;whiteSpace=wrap;html=1;fontSize=16;" vertex="1" parent="1">
          <mxGeometry x="-230" y="-40" width="120" height="30" as="geometry" />
        </mxCell>
        <mxCell id="5O7YW4QzNlTuXjikIeBW-5" value="cli" style="rounded=0;whiteSpace=wrap;html=1;fontSize=16;" vertex="1" parent="1">
          <mxGeometry x="-230" width="120" height="30" as="geometry" />
        </mxCell>
        <mxCell id="5O7YW4QzNlTuXjikIeBW-6" value="actuator" style="rounded=0;whiteSpace=wrap;html=1;fontSize=16;" vertex="1" parent="1">
          <mxGeometry x="-230" y="40" width="120" height="30" as="geometry" />
        </mxCell>
        <mxCell id="5O7YW4QzNlTuXjikIeBW-7" value="test" style="rounded=0;whiteSpace=wrap;html=1;fontSize=16;" vertex="1" parent="1">
          <mxGeometry x="-230" y="85" width="120" height="30" as="geometry" />
        </mxCell>
        <mxCell id="5O7YW4QzNlTuXjikIeBW-8" value="loader" style="rounded=0;whiteSpace=wrap;html=1;fontSize=16;" vertex="1" parent="1">
          <mxGeometry x="-230" y="130" width="120" height="30" as="geometry" />
        </mxCell>
        <mxCell id="5O7YW4QzNlTuXjikIeBW-10" value="devtools" style="rounded=0;whiteSpace=wrap;html=1;fontSize=16;" vertex="1" parent="1">
          <mxGeometry x="-230" y="180" width="120" height="30" as="geometry" />
        </mxCell>
        <mxCell id="5O7YW4QzNlTuXjikIeBW-42" style="edgeStyle=orthogonalEdgeStyle;rounded=0;orthogonalLoop=1;jettySize=auto;html=1;entryX=1;entryY=0.5;entryDx=0;entryDy=0;fontSize=16;startSize=8;endSize=8;" edge="1" parent="1" source="5O7YW4QzNlTuXjikIeBW-11" target="5O7YW4QzNlTuXjikIeBW-13">
          <mxGeometry relative="1" as="geometry" />
        </mxCell>
        <mxCell id="5O7YW4QzNlTuXjikIeBW-43" style="edgeStyle=orthogonalEdgeStyle;rounded=0;orthogonalLoop=1;jettySize=auto;html=1;entryX=1;entryY=0.5;entryDx=0;entryDy=0;fontSize=16;startSize=8;endSize=8;" edge="1" parent="1" source="5O7YW4QzNlTuXjikIeBW-11" target="5O7YW4QzNlTuXjikIeBW-14">
          <mxGeometry relative="1" as="geometry" />
        </mxCell>
        <mxCell id="5O7YW4QzNlTuXjikIeBW-44" style="edgeStyle=orthogonalEdgeStyle;rounded=0;orthogonalLoop=1;jettySize=auto;html=1;entryX=1;entryY=0.5;entryDx=0;entryDy=0;fontSize=16;startSize=8;endSize=8;" edge="1" parent="1" source="5O7YW4QzNlTuXjikIeBW-11" target="5O7YW4QzNlTuXjikIeBW-15">
          <mxGeometry relative="1" as="geometry" />
        </mxCell>
        <mxCell id="5O7YW4QzNlTuXjikIeBW-11" value="配置文件格式" style="rounded=0;whiteSpace=wrap;html=1;fontSize=16;" vertex="1" parent="1">
          <mxGeometry x="-50" y="330" width="120" height="60" as="geometry" />
        </mxCell>
        <mxCell id="5O7YW4QzNlTuXjikIeBW-13" value="properties" style="rounded=0;whiteSpace=wrap;html=1;fontSize=16;" vertex="1" parent="1">
          <mxGeometry x="-230" y="325" width="120" height="30" as="geometry" />
        </mxCell>
        <mxCell id="5O7YW4QzNlTuXjikIeBW-14" value="yaml" style="rounded=0;whiteSpace=wrap;html=1;fontSize=16;" vertex="1" parent="1">
          <mxGeometry x="-230" y="385" width="120" height="30" as="geometry" />
        </mxCell>
        <mxCell id="5O7YW4QzNlTuXjikIeBW-15" value="yml" style="rounded=0;whiteSpace=wrap;html=1;fontSize=16;" vertex="1" parent="1">
          <mxGeometry x="-230" y="445" width="120" height="30" as="geometry" />
        </mxCell>
        <mxCell id="5O7YW4QzNlTuXjikIeBW-46" style="edgeStyle=orthogonalEdgeStyle;rounded=0;orthogonalLoop=1;jettySize=auto;html=1;entryX=0;entryY=0.5;entryDx=0;entryDy=0;fontSize=16;startSize=8;endSize=8;" edge="1" parent="1" source="5O7YW4QzNlTuXjikIeBW-17" target="5O7YW4QzNlTuXjikIeBW-18">
          <mxGeometry relative="1" as="geometry" />
        </mxCell>
        <mxCell id="5O7YW4QzNlTuXjikIeBW-47" style="edgeStyle=orthogonalEdgeStyle;rounded=0;orthogonalLoop=1;jettySize=auto;html=1;entryX=0;entryY=0.5;entryDx=0;entryDy=0;fontSize=16;startSize=8;endSize=8;" edge="1" parent="1" source="5O7YW4QzNlTuXjikIeBW-17" target="5O7YW4QzNlTuXjikIeBW-19">
          <mxGeometry relative="1" as="geometry" />
        </mxCell>
        <mxCell id="5O7YW4QzNlTuXjikIeBW-17" value="添加基础依赖包" style="rounded=0;whiteSpace=wrap;html=1;fontSize=16;" vertex="1" parent="1">
          <mxGeometry x="350" y="-15" width="120" height="60" as="geometry" />
        </mxCell>
        <mxCell id="5O7YW4QzNlTuXjikIeBW-18" value="继承spring-boot-starter-parent项目" style="rounded=0;whiteSpace=wrap;html=1;fontSize=16;" vertex="1" parent="1">
          <mxGeometry x="540" y="-55" width="260" height="40" as="geometry" />
        </mxCell>
        <mxCell id="5O7YW4QzNlTuXjikIeBW-19" value="导入spring-boot-dependencies依赖" style="rounded=0;whiteSpace=wrap;html=1;fontSize=16;" vertex="1" parent="1">
          <mxGeometry x="540" y="30" width="260" height="40" as="geometry" />
        </mxCell>
        <mxCell id="5O7YW4QzNlTuXjikIeBW-48" style="edgeStyle=orthogonalEdgeStyle;rounded=0;orthogonalLoop=1;jettySize=auto;html=1;entryX=0;entryY=0.5;entryDx=0;entryDy=0;fontSize=16;startSize=8;endSize=8;" edge="1" parent="1" source="5O7YW4QzNlTuXjikIeBW-20" target="5O7YW4QzNlTuXjikIeBW-21">
          <mxGeometry relative="1" as="geometry" />
        </mxCell>
        <mxCell id="5O7YW4QzNlTuXjikIeBW-49" style="edgeStyle=orthogonalEdgeStyle;rounded=0;orthogonalLoop=1;jettySize=auto;html=1;entryX=0;entryY=0.5;entryDx=0;entryDy=0;fontSize=16;startSize=8;endSize=8;" edge="1" parent="1" source="5O7YW4QzNlTuXjikIeBW-20" target="5O7YW4QzNlTuXjikIeBW-24">
          <mxGeometry relative="1" as="geometry" />
        </mxCell>
        <mxCell id="5O7YW4QzNlTuXjikIeBW-50" style="edgeStyle=orthogonalEdgeStyle;rounded=0;orthogonalLoop=1;jettySize=auto;html=1;entryX=0;entryY=0.5;entryDx=0;entryDy=0;fontSize=16;startSize=8;endSize=8;" edge="1" parent="1" source="5O7YW4QzNlTuXjikIeBW-20" target="5O7YW4QzNlTuXjikIeBW-25">
          <mxGeometry relative="1" as="geometry" />
        </mxCell>
        <mxCell id="5O7YW4QzNlTuXjikIeBW-51" style="edgeStyle=orthogonalEdgeStyle;rounded=0;orthogonalLoop=1;jettySize=auto;html=1;entryX=0;entryY=0.5;entryDx=0;entryDy=0;fontSize=16;startSize=8;endSize=8;" edge="1" parent="1" source="5O7YW4QzNlTuXjikIeBW-20" target="5O7YW4QzNlTuXjikIeBW-26">
          <mxGeometry relative="1" as="geometry" />
        </mxCell>
        <mxCell id="5O7YW4QzNlTuXjikIeBW-52" style="edgeStyle=orthogonalEdgeStyle;rounded=0;orthogonalLoop=1;jettySize=auto;html=1;entryX=0;entryY=0.5;entryDx=0;entryDy=0;fontSize=16;startSize=8;endSize=8;" edge="1" parent="1" source="5O7YW4QzNlTuXjikIeBW-20" target="5O7YW4QzNlTuXjikIeBW-27">
          <mxGeometry relative="1" as="geometry" />
        </mxCell>
        <mxCell id="5O7YW4QzNlTuXjikIeBW-53" style="edgeStyle=orthogonalEdgeStyle;rounded=0;orthogonalLoop=1;jettySize=auto;html=1;entryX=0;entryY=0.5;entryDx=0;entryDy=0;fontSize=16;startSize=8;endSize=8;" edge="1" parent="1" source="5O7YW4QzNlTuXjikIeBW-20" target="5O7YW4QzNlTuXjikIeBW-23">
          <mxGeometry relative="1" as="geometry" />
        </mxCell>
        <mxCell id="5O7YW4QzNlTuXjikIeBW-54" style="edgeStyle=orthogonalEdgeStyle;rounded=0;orthogonalLoop=1;jettySize=auto;html=1;entryX=0;entryY=0.5;entryDx=0;entryDy=0;fontSize=16;startSize=8;endSize=8;" edge="1" parent="1" source="5O7YW4QzNlTuXjikIeBW-20" target="5O7YW4QzNlTuXjikIeBW-28">
          <mxGeometry relative="1" as="geometry" />
        </mxCell>
        <mxCell id="5O7YW4QzNlTuXjikIeBW-55" style="edgeStyle=orthogonalEdgeStyle;rounded=0;orthogonalLoop=1;jettySize=auto;html=1;entryX=0;entryY=0.5;entryDx=0;entryDy=0;fontSize=16;startSize=8;endSize=8;" edge="1" parent="1" source="5O7YW4QzNlTuXjikIeBW-20" target="5O7YW4QzNlTuXjikIeBW-29">
          <mxGeometry relative="1" as="geometry" />
        </mxCell>
        <mxCell id="5O7YW4QzNlTuXjikIeBW-56" style="edgeStyle=orthogonalEdgeStyle;rounded=0;orthogonalLoop=1;jettySize=auto;html=1;entryX=0;entryY=0.5;entryDx=0;entryDy=0;fontSize=16;startSize=8;endSize=8;" edge="1" parent="1" source="5O7YW4QzNlTuXjikIeBW-20" target="5O7YW4QzNlTuXjikIeBW-22">
          <mxGeometry relative="1" as="geometry" />
        </mxCell>
        <mxCell id="5O7YW4QzNlTuXjikIeBW-20" value="启动流程" style="rounded=0;whiteSpace=wrap;html=1;fontSize=16;" vertex="1" parent="1">
          <mxGeometry x="350" y="330" width="120" height="60" as="geometry" />
        </mxCell>
        <mxCell id="5O7YW4QzNlTuXjikIeBW-21" value="获取并启动监听器" style="rounded=0;whiteSpace=wrap;html=1;fontSize=16;" vertex="1" parent="1">
          <mxGeometry x="560" y="100" width="250" height="40" as="geometry" />
        </mxCell>
        <mxCell id="5O7YW4QzNlTuXjikIeBW-22" value="Spring容器后置处理" style="rounded=0;whiteSpace=wrap;html=1;fontSize=16;" vertex="1" parent="1">
          <mxGeometry x="560" y="460" width="250" height="40" as="geometry" />
        </mxCell>
        <mxCell id="5O7YW4QzNlTuXjikIeBW-23" value="刷新容器" style="rounded=0;whiteSpace=wrap;html=1;fontSize=16;" vertex="1" parent="1">
          <mxGeometry x="560" y="400" width="250" height="40" as="geometry" />
        </mxCell>
        <mxCell id="5O7YW4QzNlTuXjikIeBW-24" value="根据监听器和参数来创建运行环境" style="rounded=0;whiteSpace=wrap;html=1;fontSize=16;" vertex="1" parent="1">
          <mxGeometry x="560" y="160" width="250" height="40" as="geometry" />
        </mxCell>
        <mxCell id="5O7YW4QzNlTuXjikIeBW-25" value="准备banner打印器" style="rounded=0;whiteSpace=wrap;html=1;fontSize=16;" vertex="1" parent="1">
          <mxGeometry x="560" y="220" width="250" height="40" as="geometry" />
        </mxCell>
        <mxCell id="5O7YW4QzNlTuXjikIeBW-26" value="创建Spring容器" style="rounded=0;whiteSpace=wrap;html=1;fontSize=16;" vertex="1" parent="1">
          <mxGeometry x="560" y="280" width="250" height="40" as="geometry" />
        </mxCell>
        <mxCell id="5O7YW4QzNlTuXjikIeBW-27" value="Spring容器前置处理" style="rounded=0;whiteSpace=wrap;html=1;fontSize=16;" vertex="1" parent="1">
          <mxGeometry x="560" y="340" width="250" height="40" as="geometry" />
        </mxCell>
        <mxCell id="5O7YW4QzNlTuXjikIeBW-28" value="发出结束执行的时间通知" style="rounded=0;whiteSpace=wrap;html=1;fontSize=16;" vertex="1" parent="1">
          <mxGeometry x="560" y="520" width="250" height="40" as="geometry" />
        </mxCell>
        <mxCell id="5O7YW4QzNlTuXjikIeBW-29" value="返回容器" style="rounded=0;whiteSpace=wrap;html=1;fontSize=16;" vertex="1" parent="1">
          <mxGeometry x="560" y="580" width="250" height="40" as="geometry" />
        </mxCell>
      </root>
    </mxGraphModel>
  </diagram>
</mxfile>
